# xmcd
#
# Track frame offsets:
#	150
#	18362
#	35421
#	47312
#	66803
#	89119
#	103166
#	120898
#	135438
#	154419
#	170294
#	184647
#	201150
#	210271
#	231001
#	250677
#	265471
#	286413
#
# Disc length: 3983 seconds
#
# Revision: 0
# Processed by: cddbd v1.5.2PL0 Copyright (c) Steve Scherf et al.
# Submitted via: EZCDAudioConverter 2.0.4.1
#
DISCID=f10f8d12
DTITLE=Willie Nelson - To All The Girls...
DYEAR=2013
DGENRE=
TTITLE0=Nelson Willie and Dolly Parton - From Here To The Moon And Back
TTITLE1=Nelson Willie and Miranda Lambert - She Was No Good For Me
TTITLE2=Nelson Willie and Secret Sisters - It Won't Be Very Long
TTITLE3=Nelson Willie and Rosanne Cash - Please Don’T Tell Me How The Story Ends
TTITLE4=Nelson Willie and Sheryl Crow - Far Away Places
TTITLE5=Nelson Willie and Wynonna - Bloody Mary Morning
TTITLE6=Nelson Willie and Carrie Underwood - Always On My Mind
TTITLE7=Nelson Willie and Loretta Lynn - Somewhere Between
TTITLE8=Nelson Willie and Alison Krauss - No Mas Amor
TTITLE9=Nelson Willie and Melonie Cannon - Back To Earth
TTITLE10=Nelson Willie and Mavis Staples - Grandma's Hands
TTITLE11=Nelson Willie and Norah Jones - Walkin'
TTITLE12=Nelson Willie and Shelby Lynne - Till The End Of The World
TTITLE13=Nelson Willie and Lily Meola - Will You Remember Mine
TTITLE14=Nelson Willie and Emmylou Harris - Dry Lightning
TTITLE15=Nelson Willie and Brandi Carlile - Making Believe
TTITLE16=Nelson Willie and Paula Nelson - Have You Ever Seen The Rain
TTITLE17=Nelson Willie and Tina Rose - After The Fire Is Gone
EXTD=
EXTT0=
EXTT1=
EXTT2=
EXTT3=
EXTT4=
EXTT5=
EXTT6=
EXTT7=
EXTT8=
EXTT9=
EXTT10=
EXTT11=
EXTT12=
EXTT13=
EXTT14=
EXTT15=
EXTT16=
EXTT17=
PLAYORDER=
